<svg version="1.1" id="Layer_1" xmlns="http://www.w3.org/2000/svg" xmlns:xlink="http://www.w3.org/1999/xlink" x="0px" y="0px"
	 width="100%" viewBox="0 0 1200 1200" enable-background="new 0 0 1200 1200" xml:space="preserve">
<path fill="#182A2E" opacity="1.000000" stroke="none" 
	d="
M1201.000000,2.000000 
	C1201.000000,401.622040 1201.000000,801.244080 1201.000000,1200.933105 
	C801.089355,1200.933105 401.178650,1200.933105 1.000000,1200.933105 
	C1.000000,801.633972 1.000000,402.267883 1.453607,2.457167 
	C401.604797,2.008349 801.302429,2.004175 1201.000000,2.000000 
M579.548950,462.892426 
	C603.794373,456.118469 625.604492,461.103271 646.441101,477.930389 
	C647.485840,476.195770 648.236084,474.437134 649.426453,473.058563 
	C656.171265,465.247192 663.024170,457.529175 669.834839,449.774628 
	C674.549622,444.406433 674.353149,441.642334 668.709290,437.528961 
	C643.818481,419.387970 616.047974,411.645233 585.407410,415.209595 
	C520.565002,422.752502 475.397186,481.988037 484.937073,546.707336 
	C495.528900,618.563293 567.533691,662.903320 636.144592,639.820007 
	C648.723694,635.587891 648.794250,635.590149 649.214172,622.331238 
	C649.445923,615.016907 649.461975,607.693359 649.437439,600.374512 
	C649.427124,597.281067 648.111816,594.239075 644.790466,594.299133 
	C637.386780,594.432983 629.476074,593.781677 622.691956,596.119751 
	C596.145996,605.268860 564.491394,596.509094 546.689880,574.821899 
	C515.612366,536.960693 531.331970,478.457062 579.548950,462.892426 
M606.647949,574.780396 
	C627.585510,574.780396 648.523132,574.780396 669.895569,574.780396 
	C669.895569,576.877136 669.896729,578.503662 669.895325,580.130127 
	C669.879700,598.622864 669.865540,617.115601 669.846863,635.608337 
	C669.840637,641.764648 671.835815,643.922180 677.626221,643.996765 
	C683.076294,644.066956 685.086121,641.927063 685.087830,635.930725 
	C685.096924,603.610046 685.094727,571.289307 685.085632,538.968628 
	C685.083923,532.883667 683.837341,531.642395 677.778442,531.644165 
	C652.955688,531.651550 628.132874,531.668945 603.310120,531.681763 
	C597.741089,531.684631 596.183289,533.143311 596.142334,538.711182 
	C596.077332,547.540588 596.123230,556.370850 596.096008,565.200623 
	C596.068115,574.225708 596.668152,574.838928 606.647949,574.780396 
M384.354828,699.041748 
	C376.342438,689.639771 365.936981,684.852905 353.821075,684.191467 
	C326.870697,682.720154 306.390991,700.995056 303.374878,728.808655 
	C300.541809,754.934265 317.779541,778.186584 343.256256,782.605469 
	C360.167389,785.538635 377.189789,778.903870 384.880951,766.123657 
	C391.767487,754.680603 392.824341,742.134521 391.554474,729.020752 
	C376.622284,729.020752 361.994110,729.020752 347.313965,729.020752 
	C347.313965,733.957214 347.313965,738.696533 347.313965,743.939453 
	C356.695587,743.939453 365.760468,743.939453 374.833862,743.939453 
	C373.890198,760.396729 363.159485,769.418152 347.485809,767.417236 
	C332.597687,765.516602 321.965149,753.550476 320.299774,736.821411 
	C318.537140,719.115295 328.834991,703.308899 344.450653,700.399780 
	C355.954102,698.256836 365.879547,701.452332 373.862030,711.380249 
	C377.636475,707.304321 381.193604,703.463013 384.354828,699.041748 
M463.736481,773.766113 
	C480.740417,789.400391 509.498505,784.241577 518.115173,768.404480 
	C516.395386,767.147156 514.684692,765.838806 512.913879,764.617676 
	C511.045227,763.329163 509.119171,762.123718 507.358795,760.973816 
	C496.586273,769.311890 488.353516,771.133728 480.008667,766.975220 
	C473.930359,763.946228 470.194641,759.107788 468.858337,751.802734 
	C486.666016,751.802734 503.767731,751.802734 521.024536,751.802734 
	C521.024536,747.165039 521.502502,742.815430 520.936890,738.605957 
	C519.071655,724.723633 511.822601,714.508240 498.209412,710.452881 
	C484.663208,706.417480 472.039276,709.006958 462.085449,719.755249 
	C448.424225,734.506775 449.037384,757.784424 463.736481,773.766113 
M568.552734,769.006470 
	C557.372925,768.347778 549.876160,761.932190 548.963013,751.729675 
	C566.233215,751.729675 583.460999,751.729675 600.911682,751.729675 
	C600.911682,747.868652 601.140381,744.541809 600.875916,741.254517 
	C598.491272,711.615173 570.642334,702.710022 550.776428,712.677673 
	C536.044556,720.069397 528.452637,738.647766 533.196960,756.523071 
	C537.062439,771.086853 546.824707,780.161560 561.632141,782.620972 
	C576.017273,785.010132 588.627319,781.198242 598.052917,768.784058 
	C594.157837,766.064575 590.521057,763.525513 586.979675,761.052979 
	C576.744629,768.342834 576.325928,768.530457 568.552734,769.006470 
M750.915100,772.483887 
	C751.932312,771.284180 752.949524,770.084534 754.078308,768.753296 
	C752.394836,767.496399 751.129211,766.685120 750.019104,765.698914 
	C745.820984,761.968994 742.721924,761.031677 737.008606,765.080139 
	C722.497559,775.363037 705.086304,764.682373 704.972656,751.693115 
	C722.198242,751.693115 739.424561,751.693115 756.869629,751.693115 
	C756.869629,747.998291 757.122620,744.831299 756.830750,741.715393 
	C753.725098,708.556519 723.245850,703.142517 705.829651,713.223328 
	C691.529541,721.500549 686.661987,734.866150 688.165710,750.659546 
	C689.549805,765.195923 697.288086,775.797546 711.014038,780.712097 
	C725.327026,785.836792 738.902344,783.779053 750.915100,772.483887 
M650.950012,783.065063 
	C663.401123,782.120178 672.767578,776.339294 679.336670,765.295593 
	C674.434204,762.660522 669.956238,760.253601 665.407349,757.808533 
	C664.226929,759.285400 663.424744,760.325256 662.585205,761.333923 
	C654.316772,771.268066 640.429077,771.154541 632.286682,761.091797 
	C625.387024,752.564880 626.002197,737.185913 633.562622,729.192505 
	C640.428589,721.933533 652.212769,721.318298 659.748352,727.926453 
	C661.589355,729.541016 663.149780,731.475464 665.008423,733.441772 
	C669.524292,730.915833 673.960449,728.434570 678.404480,725.948792 
	C665.367126,704.210144 632.631836,702.690369 618.158081,723.142761 
	C609.139282,735.886963 608.056519,749.905823 615.116638,763.784302 
	C622.254700,777.816162 634.557007,783.693176 650.950012,783.065063 
M624.797668,489.947510 
	C618.994690,490.147095 618.103455,491.013000 618.050110,496.580902 
	C618.019897,499.741333 618.183716,502.912018 617.983154,506.060455 
	C617.676270,510.877686 620.136230,512.684265 624.571167,512.681519 
	C652.352051,512.664185 680.132996,512.665466 707.913879,512.633179 
	C711.911621,512.628540 714.127075,510.762268 714.008972,506.520203 
	C713.921021,503.362000 714.011719,500.199219 713.994202,497.038635 
	C713.960754,490.995300 712.805969,489.920135 706.586914,489.924103 
	C679.637634,489.941223 652.688416,489.942688 624.797668,489.947510 
M858.437317,725.925476 
	C859.897705,725.925476 861.358093,725.925476 863.013306,725.925476 
	C863.013306,720.114685 863.013306,714.726013 863.013306,708.261230 
	C857.994141,709.495911 853.160706,709.836792 849.219604,711.890137 
	C845.185486,713.991943 842.025574,717.771729 838.137817,721.113708 
	C838.137817,717.671204 838.137817,714.280884 838.137817,710.980713 
	C832.539124,710.980713 827.488098,710.980713 822.436035,710.980713 
	C822.436035,734.516479 822.436035,757.626465 822.436035,780.935059 
	C827.881592,780.935059 833.149963,780.935059 838.649719,780.935059 
	C838.649719,779.150513 838.642395,777.665161 838.651001,776.179871 
	C838.712708,765.526672 838.533264,754.864746 838.916626,744.223022 
	C839.239685,735.253479 844.864807,725.060974 858.437317,725.925476 
M406.850677,750.499146 
	C406.850677,760.616882 406.850677,770.734680 406.850677,780.997192 
	C412.387939,780.997192 417.502808,780.997192 423.001312,780.997192 
	C423.001312,779.155640 423.000519,777.516968 423.001465,775.878296 
	C423.006958,766.046387 422.846100,756.210876 423.058563,746.383423 
	C423.359680,732.454773 430.067871,725.967224 443.779785,725.912964 
	C444.875214,725.908630 445.970123,725.772827 447.373444,725.677063 
	C447.373444,720.102478 447.373444,714.841553 447.373444,709.384583 
	C436.715332,708.468445 428.737823,712.537415 422.720093,723.019348 
	C422.720093,717.893860 422.720093,714.466431 422.720093,710.818970 
	C417.309937,710.818970 412.232361,710.818970 406.854340,710.818970 
	C406.854340,723.888000 406.854340,736.693481 406.850677,750.499146 
M787.235474,779.647339 
	C787.417358,767.495056 787.140198,755.313538 787.912170,743.198853 
	C788.663208,731.412537 795.152893,725.995972 806.846436,725.937927 
	C808.300354,725.930664 809.754395,725.936890 811.494141,725.936890 
	C811.494141,720.107117 811.494141,714.724060 811.494141,709.281067 
	C801.252930,708.627258 793.483154,712.371826 787.256104,720.510437 
	C787.256104,717.311584 787.256104,714.112793 787.256104,710.771118 
	C781.628052,710.771118 776.541504,710.771118 771.282532,710.771118 
	C771.282532,734.292053 771.282532,757.549988 771.282532,781.563110 
	C776.709473,781.198792 781.920227,780.848938 787.235474,779.647339 
M874.370667,730.500366 
	C874.370667,747.267761 874.370667,764.035156 874.370667,780.900024 
	C880.058167,780.900024 885.299561,780.900024 890.432007,780.900024 
	C890.432007,757.336670 890.432007,734.106995 890.432007,710.789185 
	C884.998962,710.789185 879.917175,710.789185 874.373352,710.789185 
	C874.373352,717.250366 874.373352,723.375610 874.370667,730.500366 
M885.319336,699.710876 
	C887.061829,699.710876 888.804260,699.710876 890.584961,699.710876 
	C890.584961,694.048584 890.584961,689.119873 890.584961,684.038452 
	C885.103210,684.038452 879.834412,684.038452 874.595459,684.038452 
	C874.595459,689.346558 874.595459,694.393127 874.595459,699.711121 
	C878.105774,699.711121 881.243896,699.711121 885.319336,699.710876 
z"/>
<path fill="#48575C" opacity="1.000000" stroke="none" 
	d="
M1201.000000,1.500000 
	C801.302429,2.004175 401.604797,2.008349 1.453607,2.006262 
	C1.166667,1.666667 1.315919,1.056198 1.502793,1.044456 
	C2.830883,0.961004 4.166667,1.000000 5.500000,1.000000 
	C404.000000,1.000000 802.500000,1.000000 1201.000000,1.500000 
z"/>
<path fill="#28B865" opacity="1.000000" stroke="none" 
	d="
M579.160522,462.996552 
	C531.331970,478.457062 515.612366,536.960693 546.689880,574.821899 
	C564.491394,596.509094 596.145996,605.268860 622.691956,596.119751 
	C629.476074,593.781677 637.386780,594.432983 644.790466,594.299133 
	C648.111816,594.239075 649.427124,597.281067 649.437439,600.374512 
	C649.461975,607.693359 649.445923,615.016907 649.214172,622.331238 
	C648.794250,635.590149 648.723694,635.587891 636.144592,639.820007 
	C567.533691,662.903320 495.528900,618.563293 484.937073,546.707336 
	C475.397186,481.988037 520.565002,422.752502 585.407410,415.209595 
	C616.047974,411.645233 643.818481,419.387970 668.709290,437.528961 
	C674.353149,441.642334 674.549622,444.406433 669.834839,449.774628 
	C663.024170,457.529175 656.171265,465.247192 649.426453,473.058563 
	C648.236084,474.437134 647.485840,476.195770 646.441101,477.930389 
	C625.604492,461.103271 603.794373,456.118469 579.160522,462.996552 
z"/>
<path fill="#CCD6D7" opacity="1.000000" stroke="none" 
	d="
M606.174255,574.786804 
	C596.668152,574.838928 596.068115,574.225708 596.096008,565.200623 
	C596.123230,556.370850 596.077332,547.540588 596.142334,538.711182 
	C596.183289,533.143311 597.741089,531.684631 603.310120,531.681763 
	C628.132874,531.668945 652.955688,531.651550 677.778442,531.644165 
	C683.837341,531.642395 685.083923,532.883667 685.085632,538.968628 
	C685.094727,571.289307 685.096924,603.610046 685.087830,635.930725 
	C685.086121,641.927063 683.076294,644.066956 677.626221,643.996765 
	C671.835815,643.922180 669.840637,641.764648 669.846863,635.608337 
	C669.865540,617.115601 669.879700,598.622864 669.895325,580.130127 
	C669.896729,578.503662 669.895569,576.877136 669.895569,574.780396 
	C648.523132,574.780396 627.585510,574.780396 606.174255,574.786804 
z"/>
<path fill="#F5F7F7" opacity="1.000000" stroke="none" 
	d="
M384.552795,699.331787 
	C381.193604,703.463013 377.636475,707.304321 373.862030,711.380249 
	C365.879547,701.452332 355.954102,698.256836 344.450653,700.399780 
	C328.834991,703.308899 318.537140,719.115295 320.299774,736.821411 
	C321.965149,753.550476 332.597687,765.516602 347.485809,767.417236 
	C363.159485,769.418152 373.890198,760.396729 374.833862,743.939453 
	C365.760468,743.939453 356.695587,743.939453 347.313965,743.939453 
	C347.313965,738.696533 347.313965,733.957214 347.313965,729.020752 
	C361.994110,729.020752 376.622284,729.020752 391.554474,729.020752 
	C392.824341,742.134521 391.767487,754.680603 384.880951,766.123657 
	C377.189789,778.903870 360.167389,785.538635 343.256256,782.605469 
	C317.779541,778.186584 300.541809,754.934265 303.374878,728.808655 
	C306.390991,700.995056 326.870697,682.720154 353.821075,684.191467 
	C365.936981,684.852905 376.342438,689.639771 384.552795,699.331787 
z"/>
<path fill="#F5F6F6" opacity="1.000000" stroke="none" 
	d="
M463.482178,773.520874 
	C449.037384,757.784424 448.424225,734.506775 462.085449,719.755249 
	C472.039276,709.006958 484.663208,706.417480 498.209412,710.452881 
	C511.822601,714.508240 519.071655,724.723633 520.936890,738.605957 
	C521.502502,742.815430 521.024536,747.165039 521.024536,751.802734 
	C503.767731,751.802734 486.666016,751.802734 468.858337,751.802734 
	C470.194641,759.107788 473.930359,763.946228 480.008667,766.975220 
	C488.353516,771.133728 496.586273,769.311890 507.358795,760.973816 
	C509.119171,762.123718 511.045227,763.329163 512.913879,764.617676 
	C514.684692,765.838806 516.395386,767.147156 518.115173,768.404480 
	C509.498505,784.241577 480.740417,789.400391 463.482178,773.520874 
M504.477966,738.751526 
	C503.145966,727.667358 496.254974,722.021118 485.073456,722.852356 
	C476.658783,723.477844 469.844177,730.872864 470.274323,739.066956 
	C481.406921,739.066956 492.548340,739.066956 504.477966,738.751526 
z"/>
<path fill="#F5F6F6" opacity="1.000000" stroke="none" 
	d="
M568.978027,769.004517 
	C576.325928,768.530457 576.744629,768.342834 586.979675,761.052979 
	C590.521057,763.525513 594.157837,766.064575 598.052917,768.784058 
	C588.627319,781.198242 576.017273,785.010132 561.632141,782.620972 
	C546.824707,780.161560 537.062439,771.086853 533.196960,756.523071 
	C528.452637,738.647766 536.044556,720.069397 550.776428,712.677673 
	C570.642334,702.710022 598.491272,711.615173 600.875916,741.254517 
	C601.140381,744.541809 600.911682,747.868652 600.911682,751.729675 
	C583.460999,751.729675 566.233215,751.729675 548.963013,751.729675 
	C549.876160,761.932190 557.372925,768.347778 568.978027,769.004517 
M563.506775,739.292358 
	C570.306641,739.292358 577.106506,739.292358 583.931458,739.292358 
	C583.239868,728.760010 576.645935,722.663879 566.605774,722.736511 
	C556.944519,722.806396 549.917603,729.493286 549.559387,739.293335 
	C553.880737,739.293335 558.196228,739.293335 563.506775,739.292358 
z"/>
<path fill="#F5F6F6" opacity="1.000000" stroke="none" 
	d="
M750.666504,772.725220 
	C738.902344,783.779053 725.327026,785.836792 711.014038,780.712097 
	C697.288086,775.797546 689.549805,765.195923 688.165710,750.659546 
	C686.661987,734.866150 691.529541,721.500549 705.829651,713.223328 
	C723.245850,703.142517 753.725098,708.556519 756.830750,741.715393 
	C757.122620,744.831299 756.869629,747.998291 756.869629,751.693115 
	C739.424561,751.693115 722.198242,751.693115 704.972656,751.693115 
	C705.086304,764.682373 722.497559,775.363037 737.008606,765.080139 
	C742.721924,761.031677 745.820984,761.968994 750.019104,765.698914 
	C751.129211,766.685120 752.394836,767.496399 754.078308,768.753296 
	C752.949524,770.084534 751.932312,771.284180 750.666504,772.725220 
M738.253479,732.489380 
	C734.430176,724.620605 727.584229,721.333435 718.529114,723.018616 
	C711.368652,724.351135 705.841370,731.027954 705.429016,738.857178 
	C716.898804,738.857178 728.368591,738.857178 740.227173,738.857178 
	C739.615295,736.640564 739.135498,734.902527 738.253479,732.489380 
z"/>
<path fill="#F5F6F6" opacity="1.000000" stroke="none" 
	d="
M650.528687,783.077026 
	C634.557007,783.693176 622.254700,777.816162 615.116638,763.784302 
	C608.056519,749.905823 609.139282,735.886963 618.158081,723.142761 
	C632.631836,702.690369 665.367126,704.210144 678.404480,725.948792 
	C673.960449,728.434570 669.524292,730.915833 665.008423,733.441772 
	C663.149780,731.475464 661.589355,729.541016 659.748352,727.926453 
	C652.212769,721.318298 640.428589,721.933533 633.562622,729.192505 
	C626.002197,737.185913 625.387024,752.564880 632.286682,761.091797 
	C640.429077,771.154541 654.316772,771.268066 662.585205,761.333923 
	C663.424744,760.325256 664.226929,759.285400 665.407349,757.808533 
	C669.956238,760.253601 674.434204,762.660522 679.336670,765.295593 
	C672.767578,776.339294 663.401123,782.120178 650.528687,783.077026 
z"/>
<path fill="#CAD4D5" opacity="1.000000" stroke="none" 
	d="
M625.268433,489.948669 
	C652.688416,489.942688 679.637634,489.941223 706.586914,489.924103 
	C712.805969,489.920135 713.960754,490.995300 713.994202,497.038635 
	C714.011719,500.199219 713.921021,503.362000 714.008972,506.520203 
	C714.127075,510.762268 711.911621,512.628540 707.913879,512.633179 
	C680.132996,512.665466 652.352051,512.664185 624.571167,512.681519 
	C620.136230,512.684265 617.676270,510.877686 617.983154,506.060455 
	C618.183716,502.912018 618.019897,499.741333 618.050110,496.580902 
	C618.103455,491.013000 618.994690,490.147095 625.268433,489.948669 
z"/>
<path fill="#F2F4F4" opacity="1.000000" stroke="none" 
	d="
M857.997559,725.923218 
	C844.864807,725.060974 839.239685,735.253479 838.916626,744.223022 
	C838.533264,754.864746 838.712708,765.526672 838.651001,776.179871 
	C838.642395,777.665161 838.649719,779.150513 838.649719,780.935059 
	C833.149963,780.935059 827.881592,780.935059 822.436035,780.935059 
	C822.436035,757.626465 822.436035,734.516479 822.436035,710.980713 
	C827.488098,710.980713 832.539124,710.980713 838.137817,710.980713 
	C838.137817,714.280884 838.137817,717.671204 838.137817,721.113708 
	C842.025574,717.771729 845.185486,713.991943 849.219604,711.890137 
	C853.160706,709.836792 857.994141,709.495911 863.013306,708.261230 
	C863.013306,714.726013 863.013306,720.114685 863.013306,725.925476 
	C861.358093,725.925476 859.897705,725.925476 857.997559,725.923218 
z"/>
<path fill="#F6F8F8" opacity="1.000000" stroke="none" 
	d="
M406.852509,749.999084 
	C406.854340,736.693481 406.854340,723.888000 406.854340,710.818970 
	C412.232361,710.818970 417.309937,710.818970 422.720093,710.818970 
	C422.720093,714.466431 422.720093,717.893860 422.720093,723.019348 
	C428.737823,712.537415 436.715332,708.468445 447.373444,709.384583 
	C447.373444,714.841553 447.373444,720.102478 447.373444,725.677063 
	C445.970123,725.772827 444.875214,725.908630 443.779785,725.912964 
	C430.067871,725.967224 423.359680,732.454773 423.058563,746.383423 
	C422.846100,756.210876 423.006958,766.046387 423.001465,775.878296 
	C423.000519,777.516968 423.001312,779.155640 423.001312,780.997192 
	C417.502808,780.997192 412.387939,780.997192 406.850677,780.997192 
	C406.850677,770.734680 406.850677,760.616882 406.852509,749.999084 
z"/>
<path fill="#F5F6F6" opacity="1.000000" stroke="none" 
	d="
M787.183228,780.073242 
	C781.920227,780.848938 776.709473,781.198792 771.282532,781.563110 
	C771.282532,757.549988 771.282532,734.292053 771.282532,710.771118 
	C776.541504,710.771118 781.628052,710.771118 787.256104,710.771118 
	C787.256104,714.112793 787.256104,717.311584 787.256104,720.510437 
	C793.483154,712.371826 801.252930,708.627258 811.494141,709.281067 
	C811.494141,714.724060 811.494141,720.107117 811.494141,725.936890 
	C809.754395,725.936890 808.300354,725.930664 806.846436,725.937927 
	C795.152893,725.995972 788.663208,731.412537 787.912170,743.198853 
	C787.140198,755.313538 787.417358,767.495056 787.183228,780.073242 
z"/>
<path fill="#EEF0F0" opacity="1.000000" stroke="none" 
	d="
M874.372009,730.000610 
	C874.373352,723.375610 874.373352,717.250366 874.373352,710.789185 
	C879.917175,710.789185 884.998962,710.789185 890.432007,710.789185 
	C890.432007,734.106995 890.432007,757.336670 890.432007,780.900024 
	C885.299561,780.900024 880.058167,780.900024 874.370667,780.900024 
	C874.370667,764.035156 874.370667,747.267761 874.372009,730.000610 
z"/>
<path fill="#EBEDEE" opacity="1.000000" stroke="none" 
	d="
M884.850708,699.710999 
	C881.243896,699.711121 878.105774,699.711121 874.595459,699.711121 
	C874.595459,694.393127 874.595459,689.346558 874.595459,684.038452 
	C879.834412,684.038452 885.103210,684.038452 890.584961,684.038452 
	C890.584961,689.119873 890.584961,694.048584 890.584961,699.710876 
	C888.804260,699.710876 887.061829,699.710876 884.850708,699.710999 
z"/>
<path fill="#1E2E32" opacity="1.000000" stroke="none" 
	d="
M504.083862,738.909241 
	C492.548340,739.066956 481.406921,739.066956 470.274323,739.066956 
	C469.844177,730.872864 476.658783,723.477844 485.073456,722.852356 
	C496.254974,722.021118 503.145966,727.667358 504.083862,738.909241 
z"/>
<path fill="#1E2E32" opacity="1.000000" stroke="none" 
	d="
M563.009277,739.292847 
	C558.196228,739.293335 553.880737,739.293335 549.559387,739.293335 
	C549.917603,729.493286 556.944519,722.806396 566.605774,722.736511 
	C576.645935,722.663879 583.239868,728.760010 583.931458,739.292358 
	C577.106506,739.292358 570.306641,739.292358 563.009277,739.292847 
z"/>
<path fill="#1E2E32" opacity="1.000000" stroke="none" 
	d="
M738.454590,732.826904 
	C739.135498,734.902527 739.615295,736.640564 740.227173,738.857178 
	C728.368591,738.857178 716.898804,738.857178 705.427124,738.852356 
	C705.841370,731.027954 711.368652,724.351135 718.529114,723.018616 
	C727.584229,721.333435 734.430176,724.620605 738.454590,732.826904 
z"/>
</svg>